{"title":"P!nk - Blow Me (One Last Kiss)720p HD {ECS}","uid":7494833,"size":26464998,"categoryP":"video","categoryS":"music_videos","magnet":"?xt=urn:btih:b74b61443d00b2c12c15e72ed3423deeba9b7362&amp;dn=P%21nk+-+Blow+Me+%28One+Last+Kiss%29720p+HD+%7BECS%7D&amp;tr=udp%3A%2F%2Ftracker.openbittorrent.com%3A80&amp;tr=udp%3A%2F%2Fopen.demonii.com%3A1337&amp;tr=udp%3A%2F%2Ftracker.coppersurfer.tk%3A6969&amp;tr=udp%3A%2F%2Fexodus.desync.com%3A6969","seeders":2,"leechers":0,"uploader":"sameer_ecs","files":4,"time":1343846914,"description":"General\nComplete name : P!nk - Blow Me (One Last Kiss)720p HD {ECS}.mp4\nFormat : MPEG-4\nFormat profile : Base Media\nCodec ID : isom\nFile size : 25.1 MiB\nDuration : 3mn 47s\nOverall bit rate mode : Variable\nOverall bit rate : 926 Kbps\nEncoded date : UTC 2012-07-29 17:06:58\nTagged date : UTC 2012-07-29 17:06:58\n\nVideo\nID : 1\nFormat : AVC\nFormat/Info : Advanced Video Codec\nFormat profile : &lt;a class=&quot;__cf_email__&quot; href=&quot;/cdn-cgi/l/email-protection&quot; data-cfemail=&quot;6028090708202c544e51&quot;&gt;[email&amp;#160;protected]&lt;/a&gt;&lt;script cf-hash='f9e31' type=&quot;text/javascript&quot;&gt;\n/* &lt;![CDATA[ */!function(){try{var t=&quot;currentScript&quot;in document?document.currentScript:function(){for(var t=document.getElementsByTagName(&quot;script&quot;),e=t.length;e--;)if(t[e].getAttribute(&quot;cf-hash&quot;))return t[e]}();if(t&amp;&amp;t.previousSibling){var e,r,n,i,c=t.previousSibling,a=c.getAttribute(&quot;data-cfemail&quot;);if(a){for(e=&quot;&quot;,r=parseInt(a.substr(0,2),16),n=2;a.length-n;n+=2)i=parseInt(a.substr(n,2),16)^r,e+=String.fromCharCode(i);e=document.createTextNode(e),c.parentNode.replaceChild(e,c)}}}catch(u){}}();/* ]]&gt; */&lt;/script&gt;\nFormat settings, CABAC : Yes\nFormat settings, ReFrames : 3 frames\nCodec ID : avc1\nCodec ID/Info : Advanced Video Coding\nDuration : 3mn 47s\nBit rate mode : Variable\nBit rate : 792 Kbps\nMaximum bit rate : 14.0 Mbps\nWidth : 1 280 pixels\nHeight : 512 pixels\nDisplay aspect ratio : 2.500\nFrame rate mode : Constant\nFrame rate : 23.976 fps\nColor space : YUV\nChroma subsampling : 4:2:0\nBit depth : 8 bits\nScan type : Progressive\nBits/(Pixel*Frame) : 0.050\nStream size : 21.5 MiB (86%)\nWriting library : x264 core 125 r2200 999b753\n\nAudio\nID : 2\nFormat : AC-3\nFormat/Info : Audio Coding 3\nMode extension : CM (complete main)\nFormat settings, Endianness : Big\nCodec ID : ac-3\nDuration : 3mn 47s\nBit rate mode : Constant\nBit rate : 128 Kbps\nChannel(s) : 2 channels\nChannel positions : Front: L R\nSampling rate : 44.1 KHz\nBit depth : 16 bits\nCompression mode : Lossy\nStream size : 3.47 MiB (14%)\n\n &lt;a href=&quot;\nhttp://i1271.photobucket.com/albums/jj629/sameer_ecs/Pnk-BlowMeOneLastKiss720pHDECSmp4_thumbs_20120730_121415.jpg&quot; rel=&quot;nofollow&quot; target=&quot;_NEW&quot;&gt;\nhttp://i1271.photobucket.com/albums/jj629/sameer_ecs/Pnk-BlowMeOneLastKiss720pHDECSmp4_thumbs_20120730_121415.jpg&lt;/a&gt;","torrent":{"xt":"urn:btih:b74b61443d00b2c12c15e72ed3423deeba9b7362","amp;dn":"P%21nk+-+Blow+Me+%28One+Last+Kiss%29720p+HD+%7BECS%7D","amp;tr":["udp%3A%2F%2Ftracker.openbittorrent.com%3A80","udp%3A%2F%2Fopen.demonii.com%3A1337","udp%3A%2F%2Ftracker.coppersurfer.tk%3A6969","udp%3A%2F%2Fexodus.desync.com%3A6969"],"infoHash":"b74b61443d00b2c12c15e72ed3423deeba9b7362","infoHashBuffer":{"type":"Buffer","data":[183,75,97,68,61,0,178,193,44,21,231,46,211,66,61,238,186,155,115,98]},"announce":[],"urlList":[]}}